{"title":"The Core (2003) 720p MKV x264 AC3 BRrip [Pioneer]","uid":8224722,"size":2222972047,"categoryP":"video","categoryS":"hd___movies","magnet":"?xt=urn:btih:f0eeb0d73bf8b30e054dfb3bd9babc40616856d0&amp;dn=The+Core+%282003%29+720p+MKV+x264+AC3+BRrip+%5BPioneer%5D&amp;tr=udp%3A%2F%2Ftracker.openbittorrent.com%3A80&amp;tr=udp%3A%2F%2Fopen.demonii.com%3A1337&amp;tr=udp%3A%2F%2Ftracker.coppersurfer.tk%3A6969&amp;tr=udp%3A%2F%2Fexodus.desync.com%3A6969","seeders":1,"leechers":0,"uploader":"Pioneer47","files":-1,"time":1362569136,"description":"In this sci-fi action drama, an unlikely group of soldiers and scientists unites to save the world from destruction. After investigating strange phenomena from around the world, Dr. John Keyes (Aaron Eckhart) finds that Earth's electromagnetic forces have started to collapse due to a lack of movement in the molten ore at its centre. Keyes must now recruit a team for a mission to save the world.\n\nStarring: Aaron Eckhart, Hilary Swank, Delroy Lindo, Stanley Tucci, D.J. Qualls, Richard Jenkins, Tch?ky Karyo, Bruce Greenwood, Alfre Woodard, Tom Schilte, DJ Qualls\nDirector: Jon Amiel\n\n &lt;a href=&quot;\nhttp://www.imdb.com/title/tt0298814/&quot; rel=&quot;nofollow&quot; target=&quot;_NEW&quot;&gt;\nhttp://www.imdb.com/title/tt0298814/&lt;/a&gt;\n\n &lt;a href=&quot;\nhttp://stpicz.com/9916_vlcsnap_2013_03_06_09h57m44s131_y6we.png&quot; rel=&quot;nofollow&quot; target=&quot;_NEW&quot;&gt;\nhttp://stpicz.com/9916_vlcsnap_2013_03_06_09h57m44s131_y6we.png&lt;/a&gt; &lt;a href=&quot;\nhttp://stpicz.com/4542_vlcsnap_2013_03_06_10h01m46s242_9sfz.png&quot; rel=&quot;nofollow&quot; target=&quot;_NEW&quot;&gt;\nhttp://stpicz.com/4542_vlcsnap_2013_03_06_10h01m46s242_9sfz.png&lt;/a&gt; &lt;a href=&quot;\nhttp://stpicz.com/6754_vlcsnap_2013_03_06_09h53m57s165_3ndl.png&quot; rel=&quot;nofollow&quot; target=&quot;_NEW&quot;&gt;\nhttp://stpicz.com/6754_vlcsnap_2013_03_06_09h53m57s165_3ndl.png&lt;/a&gt; &lt;a href=&quot;\nhttp://stpicz.com/8494_vlcsnap_2013_03_06_10h02m03s161_ypyj.png&quot; rel=&quot;nofollow&quot; target=&quot;_NEW&quot;&gt;\nhttp://stpicz.com/8494_vlcsnap_2013_03_06_10h02m03s161_ypyj.png&lt;/a&gt; &lt;a href=&quot;\nhttp://stpicz.com/4681_vlcsnap_2013_03_06_10h03m21s176_t8nu.png&quot; rel=&quot;nofollow&quot; target=&quot;_NEW&quot;&gt;\nhttp://stpicz.com/4681_vlcsnap_2013_03_06_10h03m21s176_t8nu.png&lt;/a&gt; &lt;a href=&quot;\nhttp://stpicz.com/7926_vlcsnap_2013_03_06_10h06m03s6_gu5d.png&quot; rel=&quot;nofollow&quot; target=&quot;_NEW&quot;&gt;\nhttp://stpicz.com/7926_vlcsnap_2013_03_06_10h06m03s6_gu5d.png&lt;/a&gt;\n\n\n\nGeneral\nUnique ID: 120663187272845158764727805035003569629 (0x5AC6E27238F8C055BDF5FCAF6350E5DD)\nComplete name: E:The Core (2003) 720p MKV x264 AC3 BRrip [Pioneer].mkv\nFormat: Matroska\nFormat version: Version 2\nFile size: 2.07 GiB\nDuration: 2h 14mn\nOverall bit rate: 2 196 Kbps\nWriting application: HandBrake 0.9.8\nWriting library: libmkv 0.6.5\n\nVideo\nID: 1\nFormat: AVC\nFormat/Info: Advanced Video Codec\nFormat profile: &lt;a class=&quot;__cf_email__&quot; href=&quot;/cdn-cgi/l/email-protection&quot; data-cfemail=&quot;0a42636d624a4639243b&quot;&gt;[email&amp;#160;protected]&lt;/a&gt;&lt;script cf-hash='f9e31' type=&quot;text/javascript&quot;&gt;\n/* &lt;![CDATA[ */!function(){try{var t=&quot;currentScript&quot;in document?document.currentScript:function(){for(var t=document.getElementsByTagName(&quot;script&quot;),e=t.length;e--;)if(t[e].getAttribute(&quot;cf-hash&quot;))return t[e]}();if(t&amp;&amp;t.previousSibling){var e,r,n,i,c=t.previousSibling,a=c.getAttribute(&quot;data-cfemail&quot;);if(a){for(e=&quot;&quot;,r=parseInt(a.substr(0,2),16),n=2;a.length-n;n+=2)i=parseInt(a.substr(n,2),16)^r,e+=String.fromCharCode(i);e=document.createTextNode(e),c.parentNode.replaceChild(e,c)}}}catch(u){}}();/* ]]&gt; */&lt;/script&gt;\nFormat settings, CABAC: Yes\nFormat settings, ReFrames: 4 frames\nCodec ID: V_MPEG4/ISO/AVC\nDuration: 2h 14mn\nBit rate: 2 000 Kbps\nWidth: 1 280 pixels\nHeight: 544 pixels\nDisplay aspect ratio: 2.35:1\nFrame rate mode: Constant\nFrame rate: 23.976 fps\nColor space: YUV\nChroma subsampling: 4:2:0\nBit depth: 8 bits\nScan type: Progressive\nBits/(Pixel*Frame): 0.120\nStream size: 1.85 GiB (89%)\nWriting library: x264 core 120\nLanguage: English\nDefault: Yes\nForced: No\nColor primaries: BT.709\nTransfer characteristics: BT.709\nMatrix coefficients: BT.709\n\nAudio\nID: 2\nFormat: AC-3\nFormat/Info: Audio Coding 3\nMode extension: CM (complete main)\nFormat settings, Endianness: Big\nCodec ID: A_AC3\nDuration: 2h 14mn\nBit rate mode: Constant\nBit rate: 192 Kbps\nChannel(s): 6 channels\nChannel positions: Front: L C R, Side: L R, LFE\nSampling rate: 48.0 KHz\nBit depth: 16 bits\nCompression mode: Lossy\nStream size: 185 MiB (9%)\nLanguage: English\nDefault: Yes\nForced: No","torrent":{"xt":"urn:btih:f0eeb0d73bf8b30e054dfb3bd9babc40616856d0","amp;dn":"The+Core+%282003%29+720p+MKV+x264+AC3+BRrip+%5BPioneer%5D","amp;tr":["udp%3A%2F%2Ftracker.openbittorrent.com%3A80","udp%3A%2F%2Fopen.demonii.com%3A1337","udp%3A%2F%2Ftracker.coppersurfer.tk%3A6969","udp%3A%2F%2Fexodus.desync.com%3A6969"],"infoHash":"f0eeb0d73bf8b30e054dfb3bd9babc40616856d0","infoHashBuffer":{"type":"Buffer","data":[240,238,176,215,59,248,179,14,5,77,251,59,217,186,188,64,97,104,86,208]},"announce":[],"urlList":[]}}